:SAMPLES-PER-SECOND 24
:FULLY-SPECIFIED
:DEGREES
238
root  -3.85088 39.3733 25.3519 1.33008 -52.6083 2.34412
RightUpLeg  -5.17431 -14.4257 -3.30884
RightLeg  22.6634 -17.4559 -8.03153
RightFoot  -16.2025 0.0357879 3.42839
RightToes  -2.08645e-008 3.77894e-005 6.81332e-007
Spine  5.34193 1.78284 3.03736
Spine1  10.8634 3.50401 -5.6852
HEad  -41.7338 30.5844 -23.0978
LeftShoulder1  7.21817 -13.0541 -37.5057
LeftArm  11.6507 13.3993 -24.5675
LeftForeArm  104.832 -80.8036 -84.3289
LeftHand  -0.679082 -2.10025 10.7168
RightShoulder  3.61352 6.3265 30.8616
RightArm  9.58616 -11.8086 36.1134
RightForeArm  76.2017 79.2492 60.4065
RightHand  -0.638462 8.08506 -5.85866
LeftUpLeg  -13.8168 4.61772 5.99428
LeftLeg  13.4734 15.0491 4.12603
LeftFoot  0.332524 0.933111 -9.1356
LeftToes  1.24767e-006 1.47042e-008 1.32732e-009
239
root  -3.9841 39.5432 24.9893 2.8493 -55.0929 1.04553
RightUpLeg  -4.95115 -14.5126 -1.90936
RightLeg  19.7124 -15.4625 -6.17516
RightFoot  -15.2694 -0.0173581 2.49843
RightToes  -2.08645e-008 3.77894e-005 6.81332e-007
Spine  4.33208 1.10524 1.8149
Spine1  10.4093 1.79217 -2.32245
HEad  -40.1283 33.75 -23.3644
LeftShoulder1  6.89952 -12.7282 -36.4518
LeftArm  10.1725 16.8605 -28.5192
LeftForeArm  138.68 -79.1825 -121.1
LeftHand  -0.644788 -1.67625 10.7753
RightShoulder  3.53015 6.23453 30.3456
RightArm  13.6055 -14.0574 35.8534
RightForeArm  109.623 80.5317 95.0191
RightHand  -0.428825 8.68105 -3.92331
LeftUpLeg  -12.7683 5.61011 7.67065
LeftLeg  11.0413 16.7744 3.60082
LeftFoot  2.09855 1.09012 -9.34782
LeftToes  1.24767e-006 1.47042e-008 1.32732e-009
240
root  -4.18828 39.7363 24.685 3.52386 -58.2869 0.663971
RightUpLeg  -3.98369 -10.5435 -1.12699
RightLeg  16.1313 -16.5741 -4.82726
RightFoot  -14.2468 -0.0704864 0.999713
RightToes  -2.08645e-008 3.77894e-005 6.81332e-007
Spine  2.87965 0.700293 1.0268
Spine1  10.462 0.947569 -0.816909
HEad  -37.3701 37.0443 -21.7216
LeftShoulder1  6.70777 -12.506 -35.8615
LeftArm  9.52956 18.9721 -30.4876
LeftForeArm  159.438 -73.5179 -145.751
LeftHand  -0.659925 -0.971795 12.1749
RightShoulder  3.5696 6.2403 30.7342
RightArm  16.564 -17.1636 35.4415
RightForeArm  141.035 78.2557 126.917
RightHand  -0.276371 9.476 -2.54614
LeftUpLeg  -10.9887 7.22002 9.09618
LeftLeg  8.29547 18.6567 2.2366
LeftFoot  3.97854 1.28149 -9.68859
LeftToes  1.24767e-006 1.47042e-008 1.32732e-009
241
root  -4.29659 39.845 24.3972 3.02612 -61.2507 1.29059
RightUpLeg  -3.71359 -6.76565 -0.79343
RightLeg  14.6025 -17.6391 -4.57222
RightFoot  -13.5537 -0.0872611 0.235821
RightToes  -2.08645e-008 3.77894e-005 6.81332e-007
Spine  2.39266 0.394301 0.953784
Spine1  10.7699 0.649764 -0.92292
HEad  -35.9521 39.5808 -21.0998
LeftShoulder1  6.73222 -12.4715 -36.099
LeftArm  8.18173 18.3463 -31.0323
LeftForeArm  172.009 -67.4514 -156.703
LeftHand  -0.669194 -0.860116 12.5551
RightShoulder  3.66632 6.32936 31.3942
RightArm  17.9312 -19.4922 35.6167
RightForeArm  153.967 75.3461 140.49
RightHand  -0.471479 9.91683 -3.96427
LeftUpLeg  -10.3339 8.93094 9.84318
LeftLeg  8.24973 20.1867 1.66147
LeftFoot  5.47122 1.49046 -10.2886
LeftToes  1.24767e-006 1.47042e-008 1.32732e-009
242
root  -4.24112 39.8041 24.1146 1.31012 -62.985 2.59216
RightUpLeg  -4.56576 -6.61706 -0.918372
RightLeg  16.4204 -16.2931 -5.2103
RightFoot  -14.0403 -0.0917307 0.139077
RightToes  -2.08645e-008 3.77894e-005 6.81332e-007
Spine  3.555 0.00954445 1.10269
Spine1  10.8774 0.339538 -1.24104
HEad  -35.9879 40.9233 -21.7578
LeftShoulder1  6.6676 -12.3628 -35.9838
LeftArm  5.68238 14.9298 -32.4477
LeftForeArm  177.525 -64.7731 -159.953
LeftHand  -0.681013 -0.790226 12.913
RightShoulder  3.74032 6.44561 31.7047
RightArm  17.5053 -19.8838 37.1755
RightForeArm  155.177 74.367 143.226
RightHand  -0.564988 9.82513 -4.69953
LeftUpLeg  -11.3777 11.7435 9.44677
LeftLeg  11.459 19.6619 2.88181
LeftFoot  6.46556 1.56155 -10.2002
LeftToes  1.24767e-006 1.47042e-008 1.32732e-009
243
root  -4.09089 39.6077 23.8681 -0.986877 -63.6813 3.74576
RightUpLeg  -5.97349 -7.96742 -1.33636
RightLeg  20.9817 -14.2716 -6.18784
RightFoot  -15.3751 -0.107286 -0.0910793
RightToes  -2.08645e-008 3.77894e-005 6.81332e-007
Spine  6.30776 -0.00928267 1.19883
Spine1  9.93891 0.232013 -0.785396
HEad  -34.9392 41.0657 -21.7392
LeftShoulder1  6.77444 -12.4948 -36.2969
LeftArm  3.81108 9.4409 -33.5665
LeftForeArm  174.262 -66.4854 -157.979
LeftHand  -0.706452 -0.31679 14.4522
RightShoulder  3.80102 6.53676 31.969
RightArm  16.2178 -18.3781 38.5801
RightForeArm  149.123 75.8234 138.109
RightHand  -0.625931 9.52685 -5.25529
LeftUpLeg  -13.1242 15.505 8.47442
LeftLeg  16.3168 16.7752 5.17946
LeftFoot  6.63039 1.56097 -10.1081
LeftToes  1.24767e-006 1.47042e-008 1.32732e-009
244
root  -3.99004 39.3434 23.714 -2.5271 -63.5565 4.03793
RightUpLeg  -6.92776 -9.53436 -1.6948
RightLeg  25.3039 -12.6665 -6.66336
RightFoot  -16.7614 -0.123334 -0.212041
RightToes  -2.08645e-008 3.77894e-005 6.81332e-007
Spine  7.82177 -0.0368079 2.46863
Spine1  10.1967 0.425848 -1.22511
HEad  -32.9449 40.7824 -21.1413
LeftShoulder1  7.08506 -12.8298 -37.2954
LeftArm  2.65434 2.95714 -33.214
LeftForeArm  168.519 -69.4785 -153.892
LeftHand  -0.76608 -0.201843 15.9693
RightShoulder  3.88576 6.62429 32.4811
RightArm  15.4245 -14.8202 39.1085
RightForeArm  136.597 78.3744 125.027
RightHand  -0.68682 9.01793 -5.90301
LeftUpLeg  -14.6569 16.8816 8.61544
LeftLeg  21.185 14.2096 6.37222
LeftFoot  5.95331 1.70626 -11.4351
LeftToes  1.24767e-006 1.47042e-008 1.32732e-009
245
root  -4.00474 39.1495 23.6767 -3.11316 -62.4432 3.89847
RightUpLeg  -7.01768 -11.3851 -1.98988
RightLeg  27.4707 -11.7032 -6.75397
RightFoot  -17.8507 -0.126049 -0.093656
RightToes  -2.08645e-008 3.77894e-005 6.81332e-007
Spine  7.44749 -0.134152 3.84015
Spine1  11.5356 0.540569 -1.6211
HEad  -31.2098 40.1795 -21.2101
LeftShoulder1  7.68955 -13.4149 -39.281
LeftArm  1.22973 -1.81007 -31.2577
LeftForeArm  168.82 -69.9214 -153.356
LeftHand  -0.759047 -0.0609066 16.2247
RightShoulder  3.95692 6.68128 32.9655
RightArm  15.46 -11.7181 38.4332
RightForeArm  128.354 79.4271 116.124
RightHand  -0.573967 8.74257 -5.08679
LeftUpLeg  -15.8174 17.4901 9.32431
LeftLeg  24.5307 10.4091 5.47302
LeftFoot  5.18674 1.93802 -13.5153
LeftToes  1.24767e-006 1.47042e-008 1.32732e-009
246
root  -4.07873 39.1227 23.7247 -3.67505 -60.6391 4.30478
RightUpLeg  -6.55866 -12.6365 -2.54001
RightLeg  27.925 -12.0016 -7.04091
RightFoot  -18.2132 -0.102833 0.339706
RightToes  -2.08645e-008 3.77894e-005 6.81332e-007
Spine  6.73689 -0.145784 4.34154
Spine1  12.2122 0.581085 -1.70142
HEad  -30.5422 38.856 -21.909
LeftShoulder1  7.96658 -13.6757 -40.1604
LeftArm  0.236648 -2.82759 -30.6949
LeftForeArm  172.733 -67.9669 -156.261
LeftHand  -0.683536 0.382537 15.8808
RightShoulder  3.87504 6.58928 32.5081
RightArm  15.6981 -11.7583 38.0648
RightForeArm  134.668 78.7071 122.768
RightHand  -0.670639 8.88797 -5.82319
LeftUpLeg  -16.5667 18.4216 9.69273
LeftLeg  26.0244 4.98814 2.98395
LeftFoot  5.14374 2.20054 -15.3319
LeftToes  1.24767e-006 1.47042e-008 1.32732e-009
247
root  -4.17292 39.3043 23.8728 -3.89685 -58.6546 4.94891
RightUpLeg  -5.83897 -13.3144 -3.19576
RightLeg  26.846 -12.9348 -7.23901
RightFoot  -17.3987 -0.0507851 1.27319
RightToes  -2.08645e-008 3.77894e-005 6.81332e-007
Spine  6.659 -0.183218 4.88491
Spine1  10.7839 0.797754 -2.62255
HEad  -30.006 37.3923 -22.1811
LeftShoulder1  7.80627 -13.5252 -39.656
LeftArm  0.969727 0.0818117 -31.386
LeftForeArm  174.485 -65.0859 -159.367
LeftHand  -0.645598 0.583215 15.6142
RightShoulder  3.85485 6.5608 32.4161
RightArm  16.3271 -14.8478 37.1108
RightForeArm  145.754 76.6944 134.623
RightHand  -0.671851 9.18827 -5.72557
LeftUpLeg  -16.8739 18.7964 9.90869
LeftLeg  25.9251 -1.34482 -0.366657
LeftFoot  6.14477 2.62636 -17.2049
LeftToes  1.24767e-006 1.47042e-008 1.32732e-009
248
root  -4.29729 39.6237 24.1808 -3.18951 -56.6702 5.21759
RightUpLeg  -5.10098 -13.8126 -3.81827
RightLeg  24.6921 -13.6922 -6.99301
RightFoot  -15.5659 -0.0111812 2.56082
RightToes  -2.08645e-008 3.77894e-005 6.81332e-007
Spine  4.47882 -0.00762022 5.43649
Spine1  10.9215 1.11945 -3.2718
HEad  -29.709 36.0681 -22.7845
LeftShoulder1  7.5855 -13.3186 -38.9447
LeftArm  2.48461 4.1863 -32.0473
LeftForeArm  174.752 -62.5026 -161.505
LeftHand  -0.665937 0.211296 14.9837
RightShoulder  3.83936 6.55811 32.2716
RightArm  16.7724 -18.0822 36.1673
RightForeArm  152.206 74.9603 141.195
RightHand  -0.567561 9.21171 -4.88461
LeftUpLeg  -16.7085 17.3398 10.25
LeftLeg  24.3011 -7.35428 -3.27315
LeftFoot  7.1547 3.20367 -19.772
LeftToes  1.24767e-006 1.47042e-008 1.32732e-009
249
root  -4.39204 39.9519 24.6228 -2.35706 -55.0541 5.33627
RightUpLeg  -4.44911 -14.2449 -4.69334
RightLeg  22.8752 -13.7395 -6.48952
RightFoot  -13.5225 -0.00941885 4.35075
RightToes  -2.08645e-008 3.77894e-005 6.81332e-007
Spine  2.52117 0.511004 5.42603
Spine1  10.5174 1.55868 -3.12784
HEad  -29.165 34.8572 -23.4922
LeftShoulder1  7.57264 -13.3187 -38.871
LeftArm  4.31479 9.62989 -31.8666
LeftForeArm  176.371 -59.9345 -163.43
LeftHand  -0.652776 -0.321051 13.3595
RightShoulder  3.80526 6.52034 32.0744
RightArm  17.4179 -21.4784 34.741
RightForeArm  156.006 73.7491 144.781
RightHand  -0.391282 9.42544 -3.45618
LeftUpLeg  -15.7866 14.1845 10.7925
LeftLeg  21.3898 -9.23033 -3.63667
LeftFoot  6.83638 3.52907 -22.0854
LeftToes  1.24767e-006 1.47042e-008 1.32732e-009
